<?xml version="1.0" standalone="no"?>
<!DOCTYPE svg PUBLIC "-//W3C//DTD SVG 20010904//EN"
 "http://www.w3.org/TR/2001/REC-SVG-20010904/DTD/svg10.dtd">
<svg version="1.0" xmlns="http://www.w3.org/2000/svg"
 width="100.000000pt" height="100.000000pt" viewBox="0 0 100.000000 100.000000"
 preserveAspectRatio="xMidYMid meet">
<metadata>
Created by potrace 1.14, written by Peter Selinger 2001-2017
</metadata>
<g transform="translate(0.000000,100.000000) scale(0.100000,-0.100000)"
fill="#000000" stroke="none">
<path d="M699 840 c-33 -33 -59 -62 -59 -65 0 -17 116 -125 133 -125 22 0 127
101 127 122 0 17 -111 128 -129 128 -7 0 -40 -27 -72 -60z"/>
<path d="M385 798 c-32 -67 -40 -111 -23 -125 23 -19 139 -62 152 -57 18 7 75
142 69 164 -5 18 -122 70 -156 70 -11 0 -26 -19 -42 -52z"/>
<path d="M128 830 c-22 -6 -23 -11 -26 -92 -2 -76 0 -88 16 -97 21 -11 151
-10 170 2 16 11 17 173 1 183 -14 8 -129 11 -161 4z"/>
<path d="M735 563 c-99 -41 -101 -46 -55 -147 21 -48 34 -66 48 -66 27 0 123
40 145 60 18 17 18 20 -13 91 -28 66 -45 90 -60 88 -3 0 -32 -12 -65 -26z"/>
<path d="M118 559 c-15 -8 -18 -24 -18 -94 0 -50 4 -87 11 -91 16 -9 144 -11
169 -2 18 7 20 16 20 91 0 56 -4 88 -12 94 -17 13 -148 14 -170 2z"/>
<path d="M377 550 c-15 -21 -14 -157 1 -172 15 -15 150 -16 170 -2 13 9 17 31
19 86 1 41 -2 81 -7 88 -6 10 -33 15 -90 16 -67 2 -82 -1 -93 -16z"/>
<path d="M113 293 c-14 -5 -19 -146 -7 -177 5 -13 23 -16 88 -16 50 0 87 5 94
12 12 12 17 143 6 172 -5 13 -22 16 -88 15 -44 0 -87 -3 -93 -6z"/>
<path d="M373 283 c-9 -24 -10 -145 0 -166 12 -25 172 -25 185 1 11 21 10 152
-1 170 -6 8 -36 12 -93 12 -70 0 -86 -3 -91 -17z"/>
<path d="M642 283 c-11 -22 -10 -153 1 -170 10 -15 154 -18 176 -4 9 6 14 32
15 82 2 108 1 109 -99 109 -70 0 -86 -3 -93 -17z"/>
</g>
</svg>
